REM MD5 cd8fefe5c6720edf29f7c241a880bb7d
FILE "Nishijin Pachinko Tengoku Vol. 1 (Japan).bin" BINARY
  TRACK 01 MODE2/2352
    INDEX 01 00:00:00
  TRACK 02 AUDIO
    INDEX 00 12:28:67
    INDEX 01 12:30:67
  TRACK 03 AUDIO
    INDEX 00 15:26:02
    INDEX 01 15:28:02
  TRACK 04 AUDIO
    INDEX 00 24:44:55
    INDEX 01 24:46:55
  TRACK 05 AUDIO
    INDEX 00 27:51:23
    INDEX 01 27:53:23
REM LEADOUT 33:39:72
